<?xml version="1.0" encoding="utf-8"?>
<!-- Generator: Adobe Illustrator 21.0.0, SVG Export Plug-In . SVG Version: 6.00 Build 0)  -->
<svg version="1.1" id="Layer_1" xmlns="http://www.w3.org/2000/svg" xmlns:xlink="http://www.w3.org/1999/xlink" x="0px" y="0px"
	 viewBox="0 0 360 360" style="enable-background:new 0 0 360 360;" xml:space="preserve">
<style type="text/css">
	.st0{fill:#46546F;}
	.st1{fill:none;}
	.st2{fill:#EAE7DC;}
</style>
<rect class="st0" width="360" height="360"/>
<path class="st1" d="M168,168h24v24h-24V168z"/>
<g>
	<g>
		<path class="st2" d="M239,194.3c17.3,11.7,29.4,27.7,29.4,48.9V281h50.5v-37.9C318.9,215.6,273.8,199.3,239,194.3z"/>
		<path class="st2" d="M217.9,180c27.9,0,50.5-22.6,50.5-50.5S245.8,79,217.9,79c-5.9,0-11.5,1.3-16.8,3
			c10.5,13,16.8,29.6,16.8,47.5s-6.3,34.5-16.8,47.5C206.4,178.7,212,180,217.9,180z"/>
		<path class="st2" d="M142.1,180c27.9,0,50.5-22.6,50.5-50.5S170,79,142.1,79s-50.5,22.6-50.5,50.5S114.2,180,142.1,180z
			 M142.1,104.2c13.9,0,25.3,11.4,25.3,25.3c0,13.9-11.4,25.3-25.3,25.3c-13.9,0-25.3-11.4-25.3-25.3
			C116.8,115.6,128.2,104.2,142.1,104.2z"/>
		<path class="st2" d="M142.1,192.6c-33.7,0-101,16.9-101,50.5V281h202.1v-37.9C243.2,209.6,175.8,192.6,142.1,192.6z M217.9,255.8
			H66.3v-12.5c2.5-9.1,41.7-25.4,75.8-25.4s73.3,16.3,75.8,25.3V255.8z"/>
	</g>
</g>
</svg>
