<?xml version="1.0" encoding="utf-8"?>
<!-- Generator: Adobe Illustrator 21.0.0, SVG Export Plug-In . SVG Version: 6.00 Build 0)  -->
<svg version="1.1" id="Layer_1" xmlns="http://www.w3.org/2000/svg" xmlns:xlink="http://www.w3.org/1999/xlink" x="0px" y="0px"
	 viewBox="0 0 360 360" style="enable-background:new 0 0 360 360;" xml:space="preserve">
<style type="text/css">
	.st0{fill:#46546F;}
	.st1{fill:none;}
	.st2{fill:#EAE7DC;}
</style>
<rect class="st0" width="360" height="360"/>
<g>
	<rect x="168" y="168" class="st1" width="24" height="24"/>
</g>
<g>
	<path class="st2" d="M279.4,148.9v-24.9c0-13.7-11.2-24.9-24.9-24.9h-37.3c0-20.6-16.6-37.3-37.3-37.3s-37.3,16.6-37.3,37.3h-37.3
		c-13.7,0-24.9,11.2-24.9,24.9v24.9c-20.6,0-37.3,16.6-37.3,37.3s16.6,37.3,37.3,37.3v49.8c0,13.7,11.2,24.9,24.9,24.9h149.2
		c13.7,0,24.9-11.2,24.9-24.9v-49.8c20.6,0,37.3-16.6,37.3-37.3S300.1,148.9,279.4,148.9z M124.1,180c0-10.4,8.4-18.6,18.6-18.6
		c10.4,0,18.6,8.4,18.6,18.6s-8.4,18.6-18.6,18.6S124.1,190.4,124.1,180z M229.8,248.4h-99.5v-24.9h99.4L229.8,248.4L229.8,248.4z
		 M217.3,198.6c-10.4,0-18.6-8.4-18.6-18.6s8.4-18.6,18.6-18.6c10.4,0,18.6,8.4,18.6,18.6S227.6,198.6,217.3,198.6z"/>
</g>
</svg>
