<?xml version="1.0" encoding="utf-8"?>
<!-- Generator: Adobe Illustrator 21.0.0, SVG Export Plug-In . SVG Version: 6.00 Build 0)  -->
<svg version="1.1" id="Layer_1" xmlns="http://www.w3.org/2000/svg" xmlns:xlink="http://www.w3.org/1999/xlink" x="0px" y="0px"
	 viewBox="0 0 360 360" style="enable-background:new 0 0 360 360;" xml:space="preserve">
<style type="text/css">
	.st0{fill:#46546F;}
	.st1{fill:none;}
	.st2{fill:#EAE7DC;}
</style>
<g id="Layer_2">
</g>
<rect class="st0" width="360" height="360"/>
<path class="st1" d="M168,168h24v24h-24V168z"/>
<path class="st2" d="M212.1,95.2c13.8,0,25.1-11.3,25.1-25.1S225.8,45,212.1,45s-25.1,11.3-25.1,25.1S198.2,95.2,212.1,95.2z
	 M166.8,269.8l12.6-55.2l26.3,25.1V315h25.1v-94.2l-26.3-25.1L212,158c16.3,18.8,41.4,31.4,69.1,31.4v-25.1c-23.9,0-44-12.6-54-30.1
	l-12.6-20.1c-5.1-7.5-12.6-12.6-21.4-12.6c-3.8,0-6.3,1.2-10,1.2l-65.3,27.7v59.1h25.1v-42.7l22.6-8.8l-20.1,101.7l-61.5-12.6l-5,25
	L166.8,269.8z"/>
</svg>
