<?xml version="1.0" encoding="utf-8"?>
<!-- Generator: Adobe Illustrator 21.0.0, SVG Export Plug-In . SVG Version: 6.00 Build 0)  -->
<svg version="1.1" id="Layer_1" xmlns="http://www.w3.org/2000/svg" xmlns:xlink="http://www.w3.org/1999/xlink" x="0px" y="0px"
	 viewBox="0 0 360 360" style="enable-background:new 0 0 360 360;" xml:space="preserve">
<style type="text/css">
	.st0{fill:#46546F;}
	.st1{fill:none;}
	.st2{fill:#EAE7DC;}
</style>
<rect class="st0" width="360" height="360"/>
<path class="st1" d="M168,168h24v24h-24V168z"/>
<path class="st2" d="M143.7,155.8v96.8l84.7-48.4L143.7,155.8z M288.9,107.4h-91.7L237,67.6l-8.6-8.6L180,107.4h-0.4L131.2,59
	l-8.3,8.6l39.7,39.8H71.1c-13.3,0-24.2,10.9-24.2,24.2v145.2c0,13.3,10.9,24.2,24.2,24.2h217.8c13.3,0,24.2-10.9,24.2-24.2V131.6
	C313.1,118.3,302.2,107.4,288.9,107.4z M288.9,276.8H71.1V131.6h217.8V276.8z"/>
</svg>
